HIERARCHY
ROOT Hips
{
	OFFSET 0.00000 0.00000 0.00000
	CHANNELS 6 Xposition Yposition Zposition Zrotation Yrotation Xrotation 
	JOINT LHipJoint
	{
		OFFSET 0 0 0
		CHANNELS 3 Zrotation Yrotation Xrotation
		JOINT LeftUpLeg
		{
			OFFSET 1.48831 -1.59570 0.95625
			CHANNELS 3 Zrotation Yrotation Xrotation
			JOINT LeftLeg
			{
				OFFSET 2.20856 -6.06797 0.00000
				CHANNELS 3 Zrotation Yrotation Xrotation
				JOINT LeftFoot
				{
					OFFSET 2.62924 -7.22379 0.00000
					CHANNELS 3 Zrotation Yrotation Xrotation
					JOINT LeftToeBase
					{
						OFFSET 0.16802 -0.46163 2.41673
						CHANNELS 3 Zrotation Yrotation Xrotation
						End Site
						{
							OFFSET 0.00000 -0.00000 1.23760
						}
					}
				}
			}
		}
	}
	JOINT RHipJoint
	{
		OFFSET 0 0 0
		CHANNELS 3 Zrotation Yrotation Xrotation
		JOINT RightUpLeg
		{
			OFFSET -1.56796 -1.59570 0.95625
			CHANNELS 3 Zrotation Yrotation Xrotation
			JOINT RightLeg
			{
				OFFSET -2.29239 -6.29829 0.00000
				CHANNELS 3 Zrotation Yrotation Xrotation
				JOINT RightFoot
				{
					OFFSET -2.66963 -7.33475 0.00000
					CHANNELS 3 Zrotation Yrotation Xrotation
					JOINT RightToeBase
					{
						OFFSET -0.18185 -0.49964 2.34359
						CHANNELS 3 Zrotation Yrotation Xrotation
						End Site
						{
							OFFSET -0.00000 -0.00000 1.20477
						}
					}
				}
			}
		}
	}
	JOINT LowerBack
	{
		OFFSET 0 0 0
		CHANNELS 3 Zrotation Yrotation Xrotation
		JOINT Spine
		{
			OFFSET 0.03505 2.15832 -0.34324
			CHANNELS 3 Zrotation Yrotation Xrotation
			JOINT Spine1
			{
				OFFSET -0.01089 2.17963 0.04689
				CHANNELS 3 Zrotation Yrotation Xrotation
				JOINT Neck
				{
					OFFSET 0 0 0
					CHANNELS 3 Zrotation Yrotation Xrotation
					JOINT Neck1
					{
						OFFSET 0.04686 1.69404 0.22159
						CHANNELS 3 Zrotation Yrotation Xrotation
						JOINT Head
						{
							OFFSET 0.00265 1.69305 -0.01513
							CHANNELS 3 Zrotation Yrotation Xrotation
							End Site
							{
								OFFSET -0.00415 1.80215 -0.03034
							}
						}
					}
				}
				JOINT LeftShoulder
				{
					OFFSET 0 0 0
					CHANNELS 3 Zrotation Yrotation Xrotation
					JOINT LeftArm
					{
						OFFSET 3.67184 1.11724 -0.19002
						CHANNELS 3 Zrotation Yrotation Xrotation
						JOINT LeftForeArm
						{
							OFFSET 5.17714 -0.00000 -0.00000
							CHANNELS 3 Zrotation Yrotation Xrotation
							JOINT LeftHand
							{
								OFFSET 3.43679 -0.00000 -0.00000
								CHANNELS 3 Zrotation Yrotation Xrotation
								JOINT LeftFingerBase
								{
									OFFSET 0 0 0
									CHANNELS 3 Zrotation Yrotation Xrotation
									JOINT LeftHandIndex1
									{
										OFFSET 0.57312 -0.00000 -0.00000
										CHANNELS 3 Zrotation Yrotation Xrotation
										End Site
										{
											OFFSET 0.46206 -0.00000 -0.00000
										}
									}
								}
								JOINT LThumb
								{
									OFFSET 0 0 0
									CHANNELS 3 Zrotation Yrotation Xrotation
									End Site
									{
										OFFSET 0.46912 -0.00000 0.46912
									}
								}
							}
						}
					}
				}
				JOINT RightShoulder
				{
					OFFSET 0 0 0
					CHANNELS 3 Zrotation Yrotation Xrotation
					JOINT RightArm
					{
						OFFSET -3.59596 0.95831 -0.26050
						CHANNELS 3 Zrotation Yrotation Xrotation
						JOINT RightForeArm
						{
							OFFSET -5.23908 -0.00000 -0.00000
							CHANNELS 3 Zrotation Yrotation Xrotation
							JOINT RightHand
							{
								OFFSET -3.46485 -0.00000 -0.00000
								CHANNELS 3 Zrotation Yrotation Xrotation
								JOINT RightFingerBase
								{
									OFFSET 0 0 0
									CHANNELS 3 Zrotation Yrotation Xrotation
									JOINT RightHandIndex1
									{
										OFFSET -0.60875 -0.00000 -0.00000
										CHANNELS 3 Zrotation Yrotation Xrotation
										End Site
										{
											OFFSET -0.49079 -0.00000 -0.00000
										}
									}
								}
								JOINT RThumb
								{
									OFFSET 0 0 0
									CHANNELS 3 Zrotation Yrotation Xrotation
									End Site
									{
										OFFSET -0.49829 -0.00000 0.49829
									}
								}
							}
						}
					}
				}
			}
		}
	}
}
MOTION
Frames: 12
Frame Time: .0083333
-1.1564 16.6078 -3.3726 0 0 0 0 0 0 -21 0 0 0 0 0 0 0 0 0 0 0 0 0 0 21 0 0 0 0 0 0 0 0 0 0 0 0 0 0 0 0 0 0 0 0 0 0 -16 0 0 21 0 0 11 0 0 0 -8 0 0 0 0 0 0 0 0 0 0 0 0 0 0 0 0 0 0 0 0 8 0 0 0 0 0 0 0 0 0 0 0 0 0 0 0 0 0
-1.1564 16.6078 -3.3726 -126.2310 -86.2393 130.1240 0.0000 0.0000 0.0000 -11.1927 2.3138 -2.9290 0.6515 5.1630 14.3742 0.3300 10.9303 -19.7036 0.0819 -1.8459 -5.0798 0.0000 0.0000 0.0000 17.0371 5.8360 -8.9763 -2.5026 -9.8426 28.4686 -1.8519 -9.0627 -30.3147 -0.0585 -1.5613 4.2947 2.9118 -0.7725 -0.6341 0.7307 -1.2705 5.0333 -0.9445 -0.5571 5.5226 3.0900 1.1107 -7.5398 -1.3136 0.6232 25.2672 -0.9589 0.1786 9.1712 0.0000 0.0000 0.0000 -88.5071 -6.9668 14.7928 11.6650 -19.3004 -1.9902 -0.0000 0.0000 -23.9397 16.0748 5.5263 1.5896 -7.1250 0.0000 -0.0000 -8.8620 35.6125 2.0645 0.0000 0.0000 0.0000 87.3907 2.3597 19.6325 -19.8979 30.5191 -5.4794 0.0000 0.0000 0.0468 -19.1794 -7.9990 2.7711 7.1250 -0.0000 -0.0000 6.5972 -38.3648 1.0836
-1.1564 16.6081 -3.3719 -126.4370 -86.3184 130.2750 0.0000 0.0000 0.0000 -11.2705 2.3606 -2.8749 0.6479 5.1489 14.3337 0.3218 10.9323 -19.6173 0.0904 -1.9386 -5.3361 0.0000 0.0000 0.0000 16.9631 5.7515 -8.9373 -2.5063 -9.8493 28.4900 -1.8390 -9.1317 -30.2789 -0.0528 -1.4831 4.0790 2.8733 -0.7589 -0.5929 0.6967 -1.2467 5.0199 -0.9561 -0.5465 5.4855 3.0306 1.1032 -7.5449 -1.2642 0.6115 25.2691 -0.9330 0.1730 9.1720 -0.0000 0.0000 0.0000 -88.5332 -7.0967 15.4239 11.8897 -19.6390 -2.0651 -0.0000 0.0000 -24.2884 16.0895 5.4761 1.5767 -7.1250 0.0000 -0.0000 -8.8430 35.5617 2.0711 -0.0000 0.0000 0.0000 87.3857 2.3467 19.8211 -20.0470 30.6990 -5.5553 0.0000 -0.0000 -0.1307 -19.2387 -7.8641 2.7339 7.1250 -0.0000 -0.0000 6.5281 -38.2275 1.0943
-1.1587 16.6033 -3.3711 -126.2580 -86.4097 130.0430 0.0000 0.0000 0.0000 -11.3350 2.4022 -2.8456 0.6497 5.1560 14.3541 0.3255 10.8502 -19.5659 0.0922 -1.9578 -5.3892 0.0000 0.0000 0.0000 16.8817 5.6413 -8.9700 -2.5061 -9.8490 28.4891 -1.7605 -9.5694 -30.0752 -0.0284 -1.0888 2.9932 2.8212 -0.7577 -0.6134 0.6774 -1.2428 5.0230 -0.9471 -0.5461 5.5010 3.0202 1.0974 -7.4852 -1.2966 0.6176 25.2100 -0.9412 0.1721 9.1401 0.0000 0.0000 0.0000 -88.5963 -7.2677 15.8914 12.0842 -19.9308 -2.1309 -0.0000 0.0000 -24.4438 16.0649 5.4909 1.5784 -7.1250 0.0000 -0.0000 -8.8653 35.5756 2.0733 0.0000 0.0000 0.0000 87.3635 2.3639 19.9651 -20.1784 30.8567 -5.6226 0.0000 -0.0000 -0.1293 -19.3354 -7.7743 2.7175 7.1250 -0.0000 -0.0000 6.4337 -38.1400 1.0922
-1.1555 16.6052 -3.3711 -125.7420 -86.3858 129.5290 0.0000 0.0000 0.0000 -11.2922 2.4030 -2.8805 0.6508 5.1604 14.3667 0.3189 10.8759 -19.5223 0.0969 -2.0078 -5.5273 0.0000 0.0000 0.0000 16.9271 5.6372 -8.9564 -2.5075 -9.8516 28.4975 -1.7814 -9.4371 -30.1178 -0.0339 -1.1890 3.2689 2.8696 -0.7348 -0.6409 0.6842 -1.2149 5.0181 -0.9661 -0.5300 5.5121 3.0098 1.0819 -7.4791 -1.3234 0.6064 25.1881 -0.9494 0.1637 9.1309 0.0000 -0.0000 0.0000 -88.6632 -7.4363 16.4491 12.3059 -20.2617 -2.2071 -0.0000 0.0000 -24.7949 16.1090 5.4024 1.5576 -7.1250 0.0000 -0.0000 -8.8167 35.4870 2.0810 0.0000 -0.0000 0.0000 87.3380 2.4132 20.0923 -20.2898 30.9899 -5.6798 0.0000 -0.0000 -0.1728 -19.2687 -7.7693 2.7057 7.1250 -0.0000 -0.0000 6.4899 -38.1301 1.1034
-1.1544 16.6043 -3.3708 -125.4550 -86.4112 129.2180 0.0000 0.0000 0.0000 -11.3001 2.4153 -2.9051 0.6549 5.1763 14.4121 0.3158 10.8687 -19.4799 0.1027 -2.0664 -5.6891 0.0000 0.0000 0.0000 16.9155 5.5888 -8.9581 -2.5062 -9.8492 28.4898 -1.7535 -9.5818 -30.0387 -0.0269 -1.0588 2.9107 2.8743 -0.7201 -0.6543 0.6762 -1.1951 5.0137 -0.9762 -0.5195 5.5156 2.9938 1.0749 -7.4675 -1.3402 0.6050 25.1755 -0.9525 0.1602 9.1241 0.0000 0.0000 0.0000 -88.7234 -7.5842 16.9889 12.5355 -20.6028 -2.2872 -0.0000 0.0000 -25.0917 16.1474 5.3781 1.5545 -7.1250 0.0000 -0.0000 -8.7818 35.4639 2.0776 0.0000 0.0000 0.0000 87.3146 2.4484 20.2256 -20.3997 31.1209 -5.7365 0.0000 -0.0000 -0.2154 -19.2657 -7.7087 2.6843 7.1250 -0.0000 -0.0000 6.4842 -38.0663 1.1126
-1.1529 16.6034 -3.3705 -125.1240 -86.4294 128.8680 0.0000 0.0000 0.0000 -11.3004 2.4268 -2.9243 0.6572 5.1851 14.4374 0.3101 10.8773 -19.4269 0.1090 -2.1291 -5.8627 0.0000 0.0000 0.0000 16.9114 5.5537 -8.9713 -2.5073 -9.8512 28.4962 -1.7271 -9.7232 -29.9668 -0.0208 -0.9308 2.5585 2.8851 -0.7053 -0.6693 0.6704 -1.1754 5.0093 -0.9874 -0.5089 5.5200 2.9833 1.0699 -7.4643 -1.3632 0.6064 25.1733 -0.9584 0.1578 9.1226 -0.0000 0.0000 0.0000 -88.7862 -7.7205 17.5316 12.7800 -20.9640 -2.3740 -0.0000 0.0000 -25.4040 16.2013 5.3692 1.5574 -7.1250 0.0000 -0.0000 -8.7361 35.4575 2.0680 -0.0000 0.0000 0.0000 87.2890 2.4929 20.3502 -20.4955 31.2347 -5.7861 0.0000 -0.0000 -0.2568 -19.2585 -7.6530 2.6640 7.1250 -0.0000 -0.0000 6.4829 -38.0074 1.1218
-1.1511 16.6028 -3.3704 -124.8120 -86.4454 128.5370 0.0000 0.0000 0.0000 -11.2998 2.4289 -2.9458 0.6602 5.1969 14.4711 0.3066 10.8796 -19.3908 0.1137 -2.1743 -5.9876 0.0000 0.0000 0.0000 16.9086 5.5218 -8.9784 -2.5072 -9.8509 28.4953 -1.7054 -9.8350 -29.9055 -0.0166 -0.8329 2.2893 2.8958 -0.6910 -0.6808 0.6645 -1.1565 5.0054 -0.9986 -0.4988 5.5229 2.9753 1.0685 -7.4724 -1.3877 0.6120 25.1844 -0.9649 0.1572 9.1281 -0.0000 0.0000 0.0000 -88.8493 -7.8454 18.0697 13.0418 -21.3485 -2.4685 -0.0000 0.0000 -25.7175 16.2540 5.4075 1.5738 -7.1250 0.0000 -0.0000 -8.6978 35.4994 2.0497 -0.0000 0.0000 0.0000 87.2612 2.5454 20.4697 -20.5786 31.3331 -5.8292 0.0000 -0.0000 -0.2965 -19.2326 -7.6165 2.6475 7.1250 -0.0000 -0.0000 6.5001 -37.9674 1.1312
-1.1493 16.6021 -3.3702 -124.5050 -86.4693 128.2060 0.0000 0.0000 0.0000 -11.3054 2.4320 -2.9573 0.6629 5.2070 14.5000 0.3045 10.8704 -19.3571 0.1171 -2.2061 -6.0756 0.0000 0.0000 0.0000 16.8980 5.4833 -8.9808 -2.5074 -9.8514 28.4968 -1.6874 -9.9251 -29.8530 -0.0135 -0.7508 2.0632 2.8988 -0.6806 -0.6855 0.6571 -1.1422 5.0034 -1.0072 -0.4913 5.5238 2.9696 1.0712 -7.4847 -1.4154 0.6231 25.2027 -0.9724 0.1590 9.1370 -0.0000 -0.0000 0.0000 -88.9122 -7.9558 18.6043 13.3185 -21.7520 -2.5701 -0.0000 0.0000 -26.0421 16.3093 5.4485 1.5914 -7.1250 0.0000 -0.0000 -8.6577 35.5443 2.0305 -0.0000 -0.0000 0.0000 87.2313 2.6045 20.5856 -20.6483 31.4155 -5.8655 0.0000 -0.0000 -0.3331 -19.2059 -7.5937 2.6357 7.1250 -0.0000 -0.0000 6.5197 -37.9417 1.1388
-1.1473 16.6016 -3.3701 -124.1790 -86.4956 127.8520 0.0000 0.0000 0.0000 -11.3118 2.4367 -2.9601 0.6648 5.2144 14.5210 0.3037 10.8501 -19.3251 0.1190 -2.2241 -6.1255 0.0000 0.0000 0.0000 16.8859 5.4413 -8.9779 -2.5084 -9.8531 28.5024 -1.6766 -9.9756 -29.8187 -0.0118 -0.7001 1.9240 2.8993 -0.6731 -0.6857 0.6497 -1.1317 5.0037 -1.0147 -0.4858 5.5245 2.9642 1.0770 -7.5018 -1.4443 0.6386 25.2259 -0.9801 0.1627 9.1487 -0.0000 0.0000 0.0000 -88.9755 -8.0614 19.1170 13.6078 -22.1712 -2.6783 -0.0000 0.0000 -26.3444 16.3330 5.5488 1.6231 -7.1250 0.0000 -0.0000 -8.6518 35.6487 2.0069 -0.0000 0.0000 0.0000 87.1997 2.6713 20.7000 -20.7056 31.4831 -5.8955 0.0000 -0.0000 -0.3752 -19.1811 -7.5869 2.6297 7.1250 -0.0000 -0.0000 6.5399 -37.9329 1.1437
-1.1452 16.6013 -3.3699 -123.8880 -86.5301 127.5280 0.0000 0.0000 0.0000 -11.3264 2.4444 -2.9490 0.6660 5.2192 14.5350 0.3053 10.8124 -19.3006 0.1186 -2.2199 -6.1137 0.0000 0.0000 0.0000 16.8643 5.3890 -8.9634 -2.5100 -9.8560 28.5116 -1.6762 -9.9628 -29.8071 -0.0116 -0.6959 1.9125 2.8904 -0.6695 -0.6796 0.6405 -1.1261 5.0076 -1.0188 -0.4832 5.5253 2.9573 1.0865 -7.5204 -1.4727 0.6594 25.2510 -0.9867 0.1688 9.1615 0.0000 0.0000 0.0000 -89.0384 -8.1621 19.6201 13.9013 -22.5935 -2.7901 -0.0000 0.0000 -26.6546 16.3456 5.6137 1.6433 -7.1250 0.0000 -0.0000 -8.6501 35.7161 1.9921 0.0000 0.0000 0.0000 87.1661 2.7449 20.8134 -20.7510 31.5366 -5.9192 0.0000 -0.0000 -0.4128 -19.1581 -7.5874 2.6265 7.1250 -0.0000 -0.0000 6.5594 -37.9319 1.1474
-1.1431 16.6010 -3.3698 -123.5930 -86.5636 127.1950 0.0000 0.0000 0.0000 -11.3391 2.4592 -2.9338 0.6667 5.2219 14.5424 0.3071 10.7690 -19.2717 0.1178 -2.2126 -6.0935 0.0000 0.0000 0.0000 16.8447 5.3380 -8.9483 -2.5120 -9.8597 28.5235 -1.6755 -9.9553 -29.7972 -0.0114 -0.6903 1.8971 2.8814 -0.6673 -0.6691 0.6320 -1.1223 5.0118 -1.0223 -0.4815 5.5238 2.9458 1.0984 -7.5357 -1.4960 0.6828 25.2774 -0.9907 0.1761 9.1742 -0.0000 0.0000 0.0000 -89.1010 -8.2581 20.1137 14.1975 -23.0163 -2.9049 -0.0000 0.0000 -26.9521 16.3375 5.6845 1.6631 -7.1250 0.0000 -0.0000 -8.6666 35.7885 1.9805 -0.0000 0.0000 0.0000 87.1301 2.8223 20.9235 -20.7827 31.5738 -5.9358 0.0000 -0.0000 -0.4470 -19.1484 -7.5805 2.6227 7.1250 -0.0000 -0.0000 6.5668 -37.9240 1.1499
